<mxfile host="Electron" modified="2024-06-09T19:29:06.662Z" agent="Mozilla/5.0 (Windows NT 10.0; Win64; x64) AppleWebKit/537.36 (KHTML, like Gecko) draw.io/24.5.1 Chrome/124.0.6367.207 Electron/30.0.6 Safari/537.36" etag="-LADTF1_Zm4hRRlSeEay" version="24.5.1" type="device" pages="3">
  <diagram name="v0.0.0.0" id="UOAC7Kyy6mlVjlWV6C5J">
    <mxGraphModel dx="1434" dy="870" grid="1" gridSize="10" guides="1" tooltips="1" connect="1" arrows="1" fold="1" page="1" pageScale="1" pageWidth="1920" pageHeight="1200" math="0" shadow="0">
      <root>
        <mxCell id="0" />
        <mxCell id="1" parent="0" />
        <mxCell id="DH2n2pj4Jf_HERMOLGTm-19" style="edgeStyle=orthogonalEdgeStyle;rounded=0;orthogonalLoop=1;jettySize=auto;html=1;exitX=1;exitY=0.5;exitDx=0;exitDy=0;entryX=0;entryY=0.5;entryDx=0;entryDy=0;startArrow=classicThin;startFill=1;endArrow=none;endFill=0;" parent="1" source="DH2n2pj4Jf_HERMOLGTm-5" target="DH2n2pj4Jf_HERMOLGTm-21" edge="1">
          <mxGeometry relative="1" as="geometry" />
        </mxCell>
        <mxCell id="DH2n2pj4Jf_HERMOLGTm-20" value="запрос ресурса&amp;nbsp;&lt;div&gt;для решения&lt;/div&gt;" style="edgeLabel;html=1;align=center;verticalAlign=middle;resizable=0;points=[];" parent="DH2n2pj4Jf_HERMOLGTm-19" vertex="1" connectable="0">
          <mxGeometry x="-0.4742" y="-1" relative="1" as="geometry">
            <mxPoint x="25" y="-21" as="offset" />
          </mxGeometry>
        </mxCell>
        <mxCell id="DH2n2pj4Jf_HERMOLGTm-26" style="edgeStyle=orthogonalEdgeStyle;rounded=0;orthogonalLoop=1;jettySize=auto;html=1;exitX=1;exitY=0.75;exitDx=0;exitDy=0;entryX=0;entryY=0.75;entryDx=0;entryDy=0;" parent="1" source="DH2n2pj4Jf_HERMOLGTm-5" target="DH2n2pj4Jf_HERMOLGTm-21" edge="1">
          <mxGeometry relative="1" as="geometry" />
        </mxCell>
        <mxCell id="DH2n2pj4Jf_HERMOLGTm-5" value="Банк ресурсов" style="rounded=0;whiteSpace=wrap;html=1;fillColor=#f5f5f5;fontColor=#333333;strokeColor=#666666;" parent="1" vertex="1">
          <mxGeometry x="200" y="310" width="120" height="60" as="geometry" />
        </mxCell>
        <mxCell id="ISEaZnG02TGC_BF3meIF-23" style="edgeStyle=orthogonalEdgeStyle;rounded=0;orthogonalLoop=1;jettySize=auto;html=1;exitX=0;exitY=0.5;exitDx=0;exitDy=0;exitPerimeter=0;" parent="1" source="DH2n2pj4Jf_HERMOLGTm-13" target="ISEaZnG02TGC_BF3meIF-19" edge="1">
          <mxGeometry relative="1" as="geometry" />
        </mxCell>
        <mxCell id="ISEaZnG02TGC_BF3meIF-32" style="edgeStyle=orthogonalEdgeStyle;rounded=0;orthogonalLoop=1;jettySize=auto;html=1;exitX=0;exitY=0.5;exitDx=0;exitDy=0;exitPerimeter=0;entryX=0;entryY=0.25;entryDx=0;entryDy=0;" parent="1" source="DH2n2pj4Jf_HERMOLGTm-13" target="ISEaZnG02TGC_BF3meIF-24" edge="1">
          <mxGeometry relative="1" as="geometry" />
        </mxCell>
        <mxCell id="DH2n2pj4Jf_HERMOLGTm-13" value="БД" style="shape=cylinder3;whiteSpace=wrap;html=1;boundedLbl=1;backgroundOutline=1;size=15;fillColor=#ffe6cc;strokeColor=#d79b00;" parent="1" vertex="1">
          <mxGeometry x="235" y="420" width="50" height="70" as="geometry" />
        </mxCell>
        <mxCell id="DH2n2pj4Jf_HERMOLGTm-14" style="edgeStyle=orthogonalEdgeStyle;rounded=0;orthogonalLoop=1;jettySize=auto;html=1;exitX=0.5;exitY=1;exitDx=0;exitDy=0;entryX=0.5;entryY=0;entryDx=0;entryDy=0;entryPerimeter=0;startArrow=classic;startFill=1;" parent="1" source="DH2n2pj4Jf_HERMOLGTm-5" target="DH2n2pj4Jf_HERMOLGTm-13" edge="1">
          <mxGeometry relative="1" as="geometry" />
        </mxCell>
        <mxCell id="DH2n2pj4Jf_HERMOLGTm-33" style="edgeStyle=orthogonalEdgeStyle;rounded=0;orthogonalLoop=1;jettySize=auto;html=1;exitX=0;exitY=0.5;exitDx=0;exitDy=0;entryX=0.75;entryY=0;entryDx=0;entryDy=0;startArrow=classic;startFill=1;" parent="1" source="DH2n2pj4Jf_HERMOLGTm-15" target="DH2n2pj4Jf_HERMOLGTm-27" edge="1">
          <mxGeometry relative="1" as="geometry" />
        </mxCell>
        <mxCell id="ISEaZnG02TGC_BF3meIF-5" style="edgeStyle=orthogonalEdgeStyle;rounded=0;orthogonalLoop=1;jettySize=auto;html=1;exitX=1;exitY=0;exitDx=0;exitDy=45;exitPerimeter=0;" parent="1" source="DH2n2pj4Jf_HERMOLGTm-16" target="ISEaZnG02TGC_BF3meIF-12" edge="1">
          <mxGeometry relative="1" as="geometry" />
        </mxCell>
        <mxCell id="DH2n2pj4Jf_HERMOLGTm-15" value="Менеджер состояния" style="rounded=0;whiteSpace=wrap;html=1;fillColor=#f5f5f5;fontColor=#333333;strokeColor=#666666;" parent="1" vertex="1">
          <mxGeometry x="540" y="170" width="120" height="60" as="geometry" />
        </mxCell>
        <mxCell id="ISEaZnG02TGC_BF3meIF-37" style="edgeStyle=orthogonalEdgeStyle;rounded=0;orthogonalLoop=1;jettySize=auto;html=1;exitX=1;exitY=0;exitDx=0;exitDy=45;exitPerimeter=0;" parent="1" source="DH2n2pj4Jf_HERMOLGTm-16" target="ISEaZnG02TGC_BF3meIF-33" edge="1">
          <mxGeometry relative="1" as="geometry" />
        </mxCell>
        <mxCell id="DH2n2pj4Jf_HERMOLGTm-16" value="NoSQL" style="shape=cylinder3;whiteSpace=wrap;html=1;boundedLbl=1;backgroundOutline=1;size=15;fillColor=#ffe6cc;strokeColor=#d79b00;" parent="1" vertex="1">
          <mxGeometry x="720" y="120" width="50" height="70" as="geometry" />
        </mxCell>
        <mxCell id="DH2n2pj4Jf_HERMOLGTm-17" style="edgeStyle=orthogonalEdgeStyle;rounded=0;orthogonalLoop=1;jettySize=auto;html=1;exitX=1;exitY=0.5;exitDx=0;exitDy=0;entryX=0;entryY=0.5;entryDx=0;entryDy=0;entryPerimeter=0;startArrow=classic;startFill=1;" parent="1" source="DH2n2pj4Jf_HERMOLGTm-15" target="DH2n2pj4Jf_HERMOLGTm-16" edge="1">
          <mxGeometry relative="1" as="geometry" />
        </mxCell>
        <mxCell id="DH2n2pj4Jf_HERMOLGTm-18" value="Redis?&lt;div&gt;Mongo?&lt;/div&gt;" style="text;html=1;align=center;verticalAlign=middle;whiteSpace=wrap;rounded=0;" parent="1" vertex="1">
          <mxGeometry x="770" y="130" width="60" height="30" as="geometry" />
        </mxCell>
        <mxCell id="DH2n2pj4Jf_HERMOLGTm-4" value="Генератор проблем" style="rounded=0;whiteSpace=wrap;html=1;fillColor=#f5f5f5;fontColor=#333333;strokeColor=#666666;" parent="1" vertex="1">
          <mxGeometry x="190" y="170" width="120" height="60" as="geometry" />
        </mxCell>
        <mxCell id="DH2n2pj4Jf_HERMOLGTm-34" style="edgeStyle=orthogonalEdgeStyle;rounded=0;orthogonalLoop=1;jettySize=auto;html=1;exitX=0;exitY=0.25;exitDx=0;exitDy=0;entryX=0.75;entryY=1;entryDx=0;entryDy=0;startArrow=classic;startFill=1;" parent="1" source="DH2n2pj4Jf_HERMOLGTm-21" target="DH2n2pj4Jf_HERMOLGTm-27" edge="1">
          <mxGeometry relative="1" as="geometry" />
        </mxCell>
        <mxCell id="DH2n2pj4Jf_HERMOLGTm-21" value="Модуль решения" style="rounded=0;whiteSpace=wrap;html=1;fillColor=#f5f5f5;fontColor=#333333;strokeColor=#666666;" parent="1" vertex="1">
          <mxGeometry x="550" y="310" width="120" height="60" as="geometry" />
        </mxCell>
        <mxCell id="DH2n2pj4Jf_HERMOLGTm-22" value="REST" style="text;html=1;align=center;verticalAlign=middle;whiteSpace=wrap;rounded=0;" parent="1" vertex="1">
          <mxGeometry x="350" y="360" width="60" height="30" as="geometry" />
        </mxCell>
        <mxCell id="DH2n2pj4Jf_HERMOLGTm-24" style="edgeStyle=orthogonalEdgeStyle;rounded=0;orthogonalLoop=1;jettySize=auto;html=1;exitX=1;exitY=0.3333333333333333;exitDx=0;exitDy=0;exitPerimeter=0;entryX=0.5;entryY=1;entryDx=0;entryDy=0;" parent="1" source="DH2n2pj4Jf_HERMOLGTm-23" edge="1">
          <mxGeometry relative="1" as="geometry">
            <mxPoint x="620" y="470" as="sourcePoint" />
            <mxPoint x="520" y="600" as="targetPoint" />
            <Array as="points">
              <mxPoint x="560" y="630" />
              <mxPoint x="520" y="630" />
            </Array>
          </mxGeometry>
        </mxCell>
        <mxCell id="DH2n2pj4Jf_HERMOLGTm-23" value="Игрок" style="shape=umlActor;verticalLabelPosition=bottom;verticalAlign=top;html=1;outlineConnect=0;" parent="1" vertex="1">
          <mxGeometry x="530" y="650" width="30" height="60" as="geometry" />
        </mxCell>
        <mxCell id="DH2n2pj4Jf_HERMOLGTm-30" value="Postgres" style="text;html=1;align=center;verticalAlign=middle;whiteSpace=wrap;rounded=0;" parent="1" vertex="1">
          <mxGeometry x="230" y="490" width="60" height="30" as="geometry" />
        </mxCell>
        <mxCell id="DH2n2pj4Jf_HERMOLGTm-27" value="шина сообщений (доменные события) - RabbitMQ" style="rounded=0;whiteSpace=wrap;html=1;fillColor=#ffe6cc;strokeColor=#d79b00;" parent="1" vertex="1">
          <mxGeometry x="180" y="260" width="450" height="20" as="geometry" />
        </mxCell>
        <mxCell id="DH2n2pj4Jf_HERMOLGTm-32" style="edgeStyle=orthogonalEdgeStyle;rounded=0;orthogonalLoop=1;jettySize=auto;html=1;exitX=1;exitY=0.5;exitDx=0;exitDy=0;entryX=0.402;entryY=-0.067;entryDx=0;entryDy=0;entryPerimeter=0;" parent="1" source="DH2n2pj4Jf_HERMOLGTm-4" target="DH2n2pj4Jf_HERMOLGTm-27" edge="1">
          <mxGeometry relative="1" as="geometry" />
        </mxCell>
        <mxCell id="DH2n2pj4Jf_HERMOLGTm-35" value="&lt;ol&gt;&lt;li&gt;Игрок может выполнять одну роль: планировщика миссии, генератора проблем или решателя проблем&lt;/li&gt;&lt;li&gt;Количество проблем и их вероятность ограничена&lt;/li&gt;&lt;li&gt;Остальные роли выполняются сервисами автоматически&lt;/li&gt;&lt;li&gt;Время решения каждой проблемы ограничено&lt;/li&gt;&lt;li&gt;Для решения проблемы нужно получить ресурсы из банка как материалы, так и исполнителей&lt;/li&gt;&lt;li&gt;Пул ресурсов ограничен и задается на этапе планирования миссии&lt;/li&gt;&lt;li&gt;Если в течении лимита времени проблема не была решена - миссия провалена&lt;/li&gt;&lt;/ol&gt;" style="text;html=1;align=left;verticalAlign=middle;whiteSpace=wrap;rounded=0;" parent="1" vertex="1">
          <mxGeometry x="1530" y="170" width="360" height="220" as="geometry" />
        </mxCell>
        <mxCell id="DH2n2pj4Jf_HERMOLGTm-43" value="Легенда" style="swimlane;whiteSpace=wrap;html=1;" parent="1" vertex="1">
          <mxGeometry x="1610" y="400" width="250" height="175" as="geometry">
            <mxRectangle x="880" y="45" width="90" height="30" as="alternateBounds" />
          </mxGeometry>
        </mxCell>
        <mxCell id="DH2n2pj4Jf_HERMOLGTm-45" value="" style="group" parent="DH2n2pj4Jf_HERMOLGTm-43" vertex="1" connectable="0">
          <mxGeometry x="10" y="40" width="220" height="30" as="geometry" />
        </mxCell>
        <mxCell id="DH2n2pj4Jf_HERMOLGTm-36" value="" style="rounded=0;whiteSpace=wrap;html=1;fillColor=#ffe6cc;strokeColor=#d79b00;" parent="DH2n2pj4Jf_HERMOLGTm-45" vertex="1">
          <mxGeometry y="5" width="40" height="20" as="geometry" />
        </mxCell>
        <mxCell id="DH2n2pj4Jf_HERMOLGTm-41" value="Инфраструктурные сервисы" style="text;html=1;align=left;verticalAlign=middle;whiteSpace=wrap;rounded=0;" parent="DH2n2pj4Jf_HERMOLGTm-45" vertex="1">
          <mxGeometry x="50" width="170" height="30" as="geometry" />
        </mxCell>
        <mxCell id="DH2n2pj4Jf_HERMOLGTm-47" value="" style="group" parent="DH2n2pj4Jf_HERMOLGTm-43" vertex="1" connectable="0">
          <mxGeometry x="10" y="80" width="210" height="30" as="geometry" />
        </mxCell>
        <mxCell id="DH2n2pj4Jf_HERMOLGTm-37" value="" style="rounded=0;whiteSpace=wrap;html=1;fillColor=#f5f5f5;strokeColor=#666666;fontColor=#333333;" parent="DH2n2pj4Jf_HERMOLGTm-47" vertex="1">
          <mxGeometry y="5" width="40" height="20" as="geometry" />
        </mxCell>
        <mxCell id="DH2n2pj4Jf_HERMOLGTm-40" value="Сервисы проекта" style="text;html=1;align=left;verticalAlign=middle;whiteSpace=wrap;rounded=0;" parent="DH2n2pj4Jf_HERMOLGTm-47" vertex="1">
          <mxGeometry x="50" width="160" height="30" as="geometry" />
        </mxCell>
        <mxCell id="DH2n2pj4Jf_HERMOLGTm-48" value="" style="group" parent="DH2n2pj4Jf_HERMOLGTm-43" vertex="1" connectable="0">
          <mxGeometry x="10" y="120" width="210" height="30" as="geometry" />
        </mxCell>
        <mxCell id="DH2n2pj4Jf_HERMOLGTm-38" value="" style="rounded=0;whiteSpace=wrap;html=1;fillColor=#d5e8d4;strokeColor=#82b366;" parent="DH2n2pj4Jf_HERMOLGTm-48" vertex="1">
          <mxGeometry y="5" width="40" height="20" as="geometry" />
        </mxCell>
        <mxCell id="DH2n2pj4Jf_HERMOLGTm-39" value="Шаблоны, технологии" style="text;html=1;align=left;verticalAlign=middle;whiteSpace=wrap;rounded=0;" parent="DH2n2pj4Jf_HERMOLGTm-48" vertex="1">
          <mxGeometry x="50" width="160" height="30" as="geometry" />
        </mxCell>
        <mxCell id="DH2n2pj4Jf_HERMOLGTm-49" value="&lt;div&gt;блокировки&lt;/div&gt;&lt;div&gt;фабрика&lt;/div&gt;" style="ellipse;shape=cloud;whiteSpace=wrap;html=1;fillColor=#d5e8d4;strokeColor=#82b366;" parent="1" vertex="1">
          <mxGeometry x="120" y="350" width="120" height="80" as="geometry" />
        </mxCell>
        <mxCell id="DH2n2pj4Jf_HERMOLGTm-12" value="фабрика&lt;div&gt;блокировки&lt;/div&gt;" style="ellipse;shape=cloud;whiteSpace=wrap;html=1;fillColor=#d5e8d4;strokeColor=#82b366;" parent="1" vertex="1">
          <mxGeometry x="130" y="100" width="120" height="80" as="geometry" />
        </mxCell>
        <mxCell id="DH2n2pj4Jf_HERMOLGTm-31" value="DTO" style="ellipse;shape=cloud;whiteSpace=wrap;html=1;fillColor=#d5e8d4;strokeColor=#82b366;" parent="1" vertex="1">
          <mxGeometry x="620" y="245" width="80" height="50" as="geometry" />
        </mxCell>
        <mxCell id="DH2n2pj4Jf_HERMOLGTm-51" value="Цель выполнить миссию - завершитьполет. Задается время полета, в течении которого могут возникать проблемы: удары метеоритов, поломки и т.п. Нужно спланировать ресурсы таким образом, чтобы за время полета не осталось не решенных проблем" style="text;html=1;align=left;verticalAlign=middle;whiteSpace=wrap;rounded=0;" parent="1" vertex="1">
          <mxGeometry x="1530" y="80" width="360" height="90" as="geometry" />
        </mxCell>
        <mxCell id="ISEaZnG02TGC_BF3meIF-1" value="Набор метрик" style="swimlane;fontStyle=0;childLayout=stackLayout;horizontal=1;startSize=30;horizontalStack=0;resizeParent=1;resizeParentMax=0;resizeLast=0;collapsible=1;marginBottom=0;whiteSpace=wrap;html=1;" parent="1" vertex="1">
          <mxGeometry x="810" y="340" width="140" height="120" as="geometry" />
        </mxCell>
        <mxCell id="ISEaZnG02TGC_BF3meIF-2" value="Здоровье двигателей" style="text;strokeColor=none;fillColor=none;align=left;verticalAlign=middle;spacingLeft=4;spacingRight=4;overflow=hidden;points=[[0,0.5],[1,0.5]];portConstraint=eastwest;rotatable=0;whiteSpace=wrap;html=1;" parent="ISEaZnG02TGC_BF3meIF-1" vertex="1">
          <mxGeometry y="30" width="140" height="30" as="geometry" />
        </mxCell>
        <mxCell id="ISEaZnG02TGC_BF3meIF-3" value="Здоровье обшивки" style="text;strokeColor=none;fillColor=none;align=left;verticalAlign=middle;spacingLeft=4;spacingRight=4;overflow=hidden;points=[[0,0.5],[1,0.5]];portConstraint=eastwest;rotatable=0;whiteSpace=wrap;html=1;" parent="ISEaZnG02TGC_BF3meIF-1" vertex="1">
          <mxGeometry y="60" width="140" height="30" as="geometry" />
        </mxCell>
        <mxCell id="ISEaZnG02TGC_BF3meIF-4" value="Запас топлива" style="text;strokeColor=none;fillColor=none;align=left;verticalAlign=middle;spacingLeft=4;spacingRight=4;overflow=hidden;points=[[0,0.5],[1,0.5]];portConstraint=eastwest;rotatable=0;whiteSpace=wrap;html=1;" parent="ISEaZnG02TGC_BF3meIF-1" vertex="1">
          <mxGeometry y="90" width="140" height="30" as="geometry" />
        </mxCell>
        <mxCell id="ISEaZnG02TGC_BF3meIF-7" style="edgeStyle=orthogonalEdgeStyle;rounded=0;orthogonalLoop=1;jettySize=auto;html=1;entryX=0.75;entryY=1;entryDx=0;entryDy=0;" parent="1" source="ISEaZnG02TGC_BF3meIF-11" target="DH2n2pj4Jf_HERMOLGTm-5" edge="1">
          <mxGeometry relative="1" as="geometry">
            <Array as="points">
              <mxPoint x="340" y="560" />
              <mxPoint x="340" y="410" />
              <mxPoint x="290" y="410" />
            </Array>
          </mxGeometry>
        </mxCell>
        <mxCell id="ISEaZnG02TGC_BF3meIF-8" value="Планировщик" style="edgeLabel;html=1;align=center;verticalAlign=middle;resizable=0;points=[];" parent="ISEaZnG02TGC_BF3meIF-7" vertex="1" connectable="0">
          <mxGeometry x="-0.2606" y="-1" relative="1" as="geometry">
            <mxPoint x="42" y="-14" as="offset" />
          </mxGeometry>
        </mxCell>
        <mxCell id="ISEaZnG02TGC_BF3meIF-9" style="edgeStyle=orthogonalEdgeStyle;rounded=0;orthogonalLoop=1;jettySize=auto;html=1;exitX=1;exitY=0.5;exitDx=0;exitDy=0;entryX=0.5;entryY=1;entryDx=0;entryDy=0;" parent="1" source="ISEaZnG02TGC_BF3meIF-11" target="DH2n2pj4Jf_HERMOLGTm-21" edge="1">
          <mxGeometry relative="1" as="geometry" />
        </mxCell>
        <mxCell id="ISEaZnG02TGC_BF3meIF-10" value="Решала" style="edgeLabel;html=1;align=center;verticalAlign=middle;resizable=0;points=[];" parent="ISEaZnG02TGC_BF3meIF-9" vertex="1" connectable="0">
          <mxGeometry x="-0.2636" y="-2" relative="1" as="geometry">
            <mxPoint x="28" y="-9" as="offset" />
          </mxGeometry>
        </mxCell>
        <mxCell id="ISEaZnG02TGC_BF3meIF-11" value="Выбор роли" style="rhombus;whiteSpace=wrap;html=1;" parent="1" vertex="1">
          <mxGeometry x="480" y="520" width="80" height="80" as="geometry" />
        </mxCell>
        <mxCell id="ISEaZnG02TGC_BF3meIF-12" value="Корабль" style="swimlane;fontStyle=0;childLayout=stackLayout;horizontal=1;startSize=30;horizontalStack=0;resizeParent=1;resizeParentMax=0;resizeLast=0;collapsible=1;marginBottom=0;whiteSpace=wrap;html=1;" parent="1" vertex="1">
          <mxGeometry x="810" y="205" width="140" height="90" as="geometry" />
        </mxCell>
        <mxCell id="ISEaZnG02TGC_BF3meIF-13" value="Удаление от цели" style="text;strokeColor=none;fillColor=none;align=left;verticalAlign=middle;spacingLeft=4;spacingRight=4;overflow=hidden;points=[[0,0.5],[1,0.5]];portConstraint=eastwest;rotatable=0;whiteSpace=wrap;html=1;" parent="ISEaZnG02TGC_BF3meIF-12" vertex="1">
          <mxGeometry y="30" width="140" height="30" as="geometry" />
        </mxCell>
        <mxCell id="ISEaZnG02TGC_BF3meIF-14" value="Метрики" style="text;strokeColor=none;fillColor=none;align=left;verticalAlign=middle;spacingLeft=4;spacingRight=4;overflow=hidden;points=[[0,0.5],[1,0.5]];portConstraint=eastwest;rotatable=0;whiteSpace=wrap;html=1;" parent="ISEaZnG02TGC_BF3meIF-12" vertex="1">
          <mxGeometry y="60" width="140" height="30" as="geometry" />
        </mxCell>
        <mxCell id="ISEaZnG02TGC_BF3meIF-16" style="edgeStyle=orthogonalEdgeStyle;rounded=0;orthogonalLoop=1;jettySize=auto;html=1;exitX=1;exitY=0.5;exitDx=0;exitDy=0;entryX=0.5;entryY=0;entryDx=0;entryDy=0;" parent="1" source="ISEaZnG02TGC_BF3meIF-14" target="ISEaZnG02TGC_BF3meIF-1" edge="1">
          <mxGeometry relative="1" as="geometry" />
        </mxCell>
        <mxCell id="ISEaZnG02TGC_BF3meIF-17" value="Событие с типом Проблема уменьшает метрику на x% в заваисимости от тяжести" style="text;html=1;align=left;verticalAlign=middle;whiteSpace=wrap;rounded=0;" parent="1" vertex="1">
          <mxGeometry x="490" y="40" width="360" height="30" as="geometry" />
        </mxCell>
        <mxCell id="ISEaZnG02TGC_BF3meIF-18" value="Событие с типом Решение уыеличивает метрику на x% в заваисимости от тяжести исходного события" style="text;html=1;align=left;verticalAlign=middle;whiteSpace=wrap;rounded=0;" parent="1" vertex="1">
          <mxGeometry x="490" y="80" width="360" height="30" as="geometry" />
        </mxCell>
        <mxCell id="ISEaZnG02TGC_BF3meIF-19" value="Ресурс" style="swimlane;fontStyle=0;childLayout=stackLayout;horizontal=1;startSize=30;horizontalStack=0;resizeParent=1;resizeParentMax=0;resizeLast=0;collapsible=1;marginBottom=0;whiteSpace=wrap;html=1;" parent="1" vertex="1">
          <mxGeometry x="60" y="500" width="140" height="90" as="geometry" />
        </mxCell>
        <mxCell id="ISEaZnG02TGC_BF3meIF-20" value="Срок годности" style="text;strokeColor=none;fillColor=none;align=left;verticalAlign=middle;spacingLeft=4;spacingRight=4;overflow=hidden;points=[[0,0.5],[1,0.5]];portConstraint=eastwest;rotatable=0;whiteSpace=wrap;html=1;" parent="ISEaZnG02TGC_BF3meIF-19" vertex="1">
          <mxGeometry y="30" width="140" height="30" as="geometry" />
        </mxCell>
        <mxCell id="ISEaZnG02TGC_BF3meIF-21" value="Запас" style="text;strokeColor=none;fillColor=none;align=left;verticalAlign=middle;spacingLeft=4;spacingRight=4;overflow=hidden;points=[[0,0.5],[1,0.5]];portConstraint=eastwest;rotatable=0;whiteSpace=wrap;html=1;" parent="ISEaZnG02TGC_BF3meIF-19" vertex="1">
          <mxGeometry y="60" width="140" height="30" as="geometry" />
        </mxCell>
        <mxCell id="ISEaZnG02TGC_BF3meIF-24" value="Член экипажа" style="swimlane;fontStyle=0;childLayout=stackLayout;horizontal=1;startSize=30;horizontalStack=0;resizeParent=1;resizeParentMax=0;resizeLast=0;collapsible=1;marginBottom=0;whiteSpace=wrap;html=1;" parent="1" vertex="1">
          <mxGeometry x="60" y="620" width="140" height="60" as="geometry" />
        </mxCell>
        <mxCell id="ISEaZnG02TGC_BF3meIF-25" value="Скилы" style="text;strokeColor=none;fillColor=none;align=left;verticalAlign=middle;spacingLeft=4;spacingRight=4;overflow=hidden;points=[[0,0.5],[1,0.5]];portConstraint=eastwest;rotatable=0;whiteSpace=wrap;html=1;" parent="ISEaZnG02TGC_BF3meIF-24" vertex="1">
          <mxGeometry y="30" width="140" height="30" as="geometry" />
        </mxCell>
        <mxCell id="ISEaZnG02TGC_BF3meIF-27" value="Навык" style="swimlane;fontStyle=0;childLayout=stackLayout;horizontal=1;startSize=30;horizontalStack=0;resizeParent=1;resizeParentMax=0;resizeLast=0;collapsible=1;marginBottom=0;whiteSpace=wrap;html=1;" parent="1" vertex="1">
          <mxGeometry x="170" y="740" width="140" height="90" as="geometry" />
        </mxCell>
        <mxCell id="ISEaZnG02TGC_BF3meIF-28" value="Компетенция" style="text;strokeColor=none;fillColor=none;align=left;verticalAlign=middle;spacingLeft=4;spacingRight=4;overflow=hidden;points=[[0,0.5],[1,0.5]];portConstraint=eastwest;rotatable=0;whiteSpace=wrap;html=1;" parent="ISEaZnG02TGC_BF3meIF-27" vertex="1">
          <mxGeometry y="30" width="140" height="30" as="geometry" />
        </mxCell>
        <mxCell id="ISEaZnG02TGC_BF3meIF-29" value="Уровень" style="text;strokeColor=none;fillColor=none;align=left;verticalAlign=middle;spacingLeft=4;spacingRight=4;overflow=hidden;points=[[0,0.5],[1,0.5]];portConstraint=eastwest;rotatable=0;whiteSpace=wrap;html=1;" parent="ISEaZnG02TGC_BF3meIF-27" vertex="1">
          <mxGeometry y="60" width="140" height="30" as="geometry" />
        </mxCell>
        <mxCell id="ISEaZnG02TGC_BF3meIF-31" style="edgeStyle=orthogonalEdgeStyle;rounded=0;orthogonalLoop=1;jettySize=auto;html=1;exitX=1;exitY=0.5;exitDx=0;exitDy=0;entryX=0.5;entryY=0;entryDx=0;entryDy=0;" parent="1" source="ISEaZnG02TGC_BF3meIF-25" target="ISEaZnG02TGC_BF3meIF-27" edge="1">
          <mxGeometry relative="1" as="geometry" />
        </mxCell>
        <mxCell id="ISEaZnG02TGC_BF3meIF-33" value="слепок склада ресурсов" style="swimlane;fontStyle=0;childLayout=stackLayout;horizontal=1;startSize=30;horizontalStack=0;resizeParent=1;resizeParentMax=0;resizeLast=0;collapsible=1;marginBottom=0;whiteSpace=wrap;html=1;" parent="1" vertex="1">
          <mxGeometry x="1000" y="205" width="140" height="60" as="geometry" />
        </mxCell>
        <mxCell id="ISEaZnG02TGC_BF3meIF-34" value="Ресурсы" style="text;strokeColor=none;fillColor=none;align=left;verticalAlign=middle;spacingLeft=4;spacingRight=4;overflow=hidden;points=[[0,0.5],[1,0.5]];portConstraint=eastwest;rotatable=0;whiteSpace=wrap;html=1;" parent="ISEaZnG02TGC_BF3meIF-33" vertex="1">
          <mxGeometry y="30" width="140" height="30" as="geometry" />
        </mxCell>
      </root>
    </mxGraphModel>
  </diagram>
  <diagram id="_Rr_jfPgxbY-f4Ny-f61" name="v.0.0.0.1">
    <mxGraphModel dx="1912" dy="1160" grid="1" gridSize="10" guides="1" tooltips="1" connect="1" arrows="1" fold="1" page="1" pageScale="1" pageWidth="1920" pageHeight="1200" math="0" shadow="0">
      <root>
        <mxCell id="0" />
        <mxCell id="1" parent="0" />
        <mxCell id="o6NXRrJ3ZICEJUwtRlCb-4" value="Корабль" style="rounded=0;whiteSpace=wrap;html=1;align=center;horizontal=1;labelPosition=center;verticalLabelPosition=top;verticalAlign=bottom;fillColor=#f5f5f5;fontColor=#333333;strokeColor=#CCCCCC;fontStyle=1" vertex="1" parent="1">
          <mxGeometry x="765" y="170" width="415" height="210" as="geometry" />
        </mxCell>
        <mxCell id="o6NXRrJ3ZICEJUwtRlCb-6" value="Игровой контроллер" style="rounded=0;whiteSpace=wrap;html=1;align=center;horizontal=1;labelPosition=center;verticalLabelPosition=top;verticalAlign=bottom;fillColor=#f5f5f5;fontColor=#333333;strokeColor=#CCCCCC;fontStyle=1" vertex="1" parent="1">
          <mxGeometry x="410" y="600" width="300" height="370" as="geometry" />
        </mxCell>
        <mxCell id="o6NXRrJ3ZICEJUwtRlCb-41" style="edgeStyle=orthogonalEdgeStyle;rounded=0;orthogonalLoop=1;jettySize=auto;html=1;exitX=1;exitY=0.5;exitDx=0;exitDy=0;entryX=0.75;entryY=1;entryDx=0;entryDy=0;dashed=1;" edge="1" parent="1" source="o6NXRrJ3ZICEJUwtRlCb-40" target="o6NXRrJ3ZICEJUwtRlCb-7">
          <mxGeometry relative="1" as="geometry" />
        </mxCell>
        <mxCell id="o6NXRrJ3ZICEJUwtRlCb-21" style="edgeStyle=orthogonalEdgeStyle;rounded=0;orthogonalLoop=1;jettySize=auto;html=1;exitX=0.366;exitY=0.998;exitDx=0;exitDy=0;entryX=1;entryY=0.5;entryDx=0;entryDy=0;exitPerimeter=0;dashed=1;" edge="1" parent="1" source="o6NXRrJ3ZICEJUwtRlCb-7" target="o6NXRrJ3ZICEJUwtRlCb-23">
          <mxGeometry relative="1" as="geometry" />
        </mxCell>
        <mxCell id="o6NXRrJ3ZICEJUwtRlCb-24" value="метрики корабля" style="edgeLabel;html=1;align=center;verticalAlign=middle;resizable=0;points=[];" vertex="1" connectable="0" parent="o6NXRrJ3ZICEJUwtRlCb-21">
          <mxGeometry x="0.6411" y="5" relative="1" as="geometry">
            <mxPoint x="1" y="10" as="offset" />
          </mxGeometry>
        </mxCell>
        <mxCell id="o6NXRrJ3ZICEJUwtRlCb-11" value="Шина сообщний" style="rounded=0;whiteSpace=wrap;html=1;shadow=0;glass=0;labelPosition=center;verticalLabelPosition=top;align=center;verticalAlign=bottom;fillColor=#f5f5f5;fontColor=#333333;strokeColor=#CCCCCC;fontStyle=1" vertex="1" parent="1">
          <mxGeometry x="440" y="440" width="260" height="90" as="geometry" />
        </mxCell>
        <mxCell id="o6NXRrJ3ZICEJUwtRlCb-26" style="edgeStyle=orthogonalEdgeStyle;rounded=0;orthogonalLoop=1;jettySize=auto;html=1;exitX=0.75;exitY=1;exitDx=0;exitDy=0;entryX=0;entryY=0.5;entryDx=0;entryDy=0;" edge="1" parent="1" source="o6NXRrJ3ZICEJUwtRlCb-5" target="o6NXRrJ3ZICEJUwtRlCb-17">
          <mxGeometry relative="1" as="geometry" />
        </mxCell>
        <mxCell id="o6NXRrJ3ZICEJUwtRlCb-5" value="Генератор проблем" style="rounded=0;whiteSpace=wrap;html=1;align=center;horizontal=1;labelPosition=center;verticalLabelPosition=top;verticalAlign=bottom;fillColor=#f5f5f5;fontColor=#333333;strokeColor=#CCCCCC;fontStyle=1" vertex="1" parent="1">
          <mxGeometry x="130" y="170" width="300" height="210" as="geometry" />
        </mxCell>
        <mxCell id="o6NXRrJ3ZICEJUwtRlCb-20" style="edgeStyle=orthogonalEdgeStyle;rounded=0;orthogonalLoop=1;jettySize=auto;html=1;exitX=1;exitY=0.25;exitDx=0;exitDy=0;entryX=0.25;entryY=1;entryDx=0;entryDy=0;dashed=1;" edge="1" parent="1" source="o6NXRrJ3ZICEJUwtRlCb-23" target="o6NXRrJ3ZICEJUwtRlCb-7">
          <mxGeometry relative="1" as="geometry" />
        </mxCell>
        <mxCell id="o6NXRrJ3ZICEJUwtRlCb-22" value="запрос метрик" style="edgeLabel;html=1;align=center;verticalAlign=middle;resizable=0;points=[];" vertex="1" connectable="0" parent="o6NXRrJ3ZICEJUwtRlCb-20">
          <mxGeometry x="-0.7714" y="2" relative="1" as="geometry">
            <mxPoint x="34" y="-15" as="offset" />
          </mxGeometry>
        </mxCell>
        <mxCell id="MpuQyKyFSTbepFh6hPgc-7" style="edgeStyle=orthogonalEdgeStyle;rounded=0;orthogonalLoop=1;jettySize=auto;html=1;exitX=1;exitY=0.25;exitDx=0;exitDy=0;startArrow=classic;startFill=1;dashed=1;dashPattern=1 4;entryX=0;entryY=0.5;entryDx=0;entryDy=0;entryPerimeter=0;" edge="1" parent="1" source="o6NXRrJ3ZICEJUwtRlCb-7" target="MpuQyKyFSTbepFh6hPgc-6">
          <mxGeometry relative="1" as="geometry">
            <Array as="points">
              <mxPoint x="920" y="250" />
              <mxPoint x="920" y="190" />
            </Array>
          </mxGeometry>
        </mxCell>
        <mxCell id="o6NXRrJ3ZICEJUwtRlCb-7" value="Состояние" style="rounded=0;whiteSpace=wrap;html=1;labelPosition=center;verticalLabelPosition=top;align=center;verticalAlign=bottom;" vertex="1" parent="1">
          <mxGeometry x="805" y="225" width="90" height="100" as="geometry" />
        </mxCell>
        <mxCell id="o6NXRrJ3ZICEJUwtRlCb-38" style="edgeStyle=orthogonalEdgeStyle;rounded=0;orthogonalLoop=1;jettySize=auto;html=1;exitX=0;exitY=0.5;exitDx=0;exitDy=0;entryX=1;entryY=0.5;entryDx=0;entryDy=0;dashed=1;" edge="1" parent="1" source="o6NXRrJ3ZICEJUwtRlCb-8" target="o6NXRrJ3ZICEJUwtRlCb-7">
          <mxGeometry relative="1" as="geometry" />
        </mxCell>
        <mxCell id="o6NXRrJ3ZICEJUwtRlCb-39" value="Новый ресурс доступен" style="edgeLabel;html=1;align=center;verticalAlign=middle;resizable=0;points=[];" vertex="1" connectable="0" parent="o6NXRrJ3ZICEJUwtRlCb-38">
          <mxGeometry x="-0.0074" relative="1" as="geometry">
            <mxPoint y="-15" as="offset" />
          </mxGeometry>
        </mxCell>
        <mxCell id="MpuQyKyFSTbepFh6hPgc-5" style="edgeStyle=orthogonalEdgeStyle;rounded=0;orthogonalLoop=1;jettySize=auto;html=1;exitX=1;exitY=0.5;exitDx=0;exitDy=0;startArrow=classic;startFill=1;dashed=1;dashPattern=1 4;" edge="1" parent="1" source="o6NXRrJ3ZICEJUwtRlCb-8" target="MpuQyKyFSTbepFh6hPgc-1">
          <mxGeometry relative="1" as="geometry" />
        </mxCell>
        <mxCell id="o6NXRrJ3ZICEJUwtRlCb-8" value="Ресурсы" style="rounded=0;whiteSpace=wrap;html=1;labelPosition=center;verticalLabelPosition=top;align=center;verticalAlign=bottom;" vertex="1" parent="1">
          <mxGeometry x="1030" y="225" width="90" height="100" as="geometry" />
        </mxCell>
        <mxCell id="o6NXRrJ3ZICEJUwtRlCb-13" style="edgeStyle=orthogonalEdgeStyle;rounded=0;orthogonalLoop=1;jettySize=auto;html=1;exitX=0;exitY=0.75;exitDx=0;exitDy=0;entryX=0.197;entryY=1.033;entryDx=0;entryDy=0;entryPerimeter=0;dashed=1;" edge="1" parent="1" source="o6NXRrJ3ZICEJUwtRlCb-25">
          <mxGeometry relative="1" as="geometry">
            <mxPoint x="400.9" y="640.57" as="sourcePoint" />
            <mxPoint x="179.99999999999991" y="380.00000000000006" as="targetPoint" />
          </mxGeometry>
        </mxCell>
        <mxCell id="o6NXRrJ3ZICEJUwtRlCb-14" value="создать проблему" style="edgeLabel;html=1;align=center;verticalAlign=middle;resizable=0;points=[];" vertex="1" connectable="0" parent="o6NXRrJ3ZICEJUwtRlCb-13">
          <mxGeometry x="0.1692" y="-4" relative="1" as="geometry">
            <mxPoint x="106" y="53" as="offset" />
          </mxGeometry>
        </mxCell>
        <mxCell id="o6NXRrJ3ZICEJUwtRlCb-15" style="edgeStyle=orthogonalEdgeStyle;rounded=0;orthogonalLoop=1;jettySize=auto;html=1;entryX=0;entryY=0.5;entryDx=0;entryDy=0;dashed=1;" edge="1" parent="1" target="o6NXRrJ3ZICEJUwtRlCb-25">
          <mxGeometry relative="1" as="geometry">
            <mxPoint x="190" y="380" as="sourcePoint" />
            <Array as="points">
              <mxPoint x="190" y="635" />
            </Array>
          </mxGeometry>
        </mxCell>
        <mxCell id="o6NXRrJ3ZICEJUwtRlCb-16" value="проблема создана" style="edgeLabel;html=1;align=center;verticalAlign=middle;resizable=0;points=[];" vertex="1" connectable="0" parent="o6NXRrJ3ZICEJUwtRlCb-15">
          <mxGeometry x="0.2907" y="-1" relative="1" as="geometry">
            <mxPoint x="32" y="-11" as="offset" />
          </mxGeometry>
        </mxCell>
        <mxCell id="o6NXRrJ3ZICEJUwtRlCb-27" style="edgeStyle=orthogonalEdgeStyle;rounded=0;orthogonalLoop=1;jettySize=auto;html=1;exitX=1;exitY=0.5;exitDx=0;exitDy=0;entryX=0;entryY=0.5;entryDx=0;entryDy=0;" edge="1" parent="1" source="o6NXRrJ3ZICEJUwtRlCb-17" target="o6NXRrJ3ZICEJUwtRlCb-7">
          <mxGeometry relative="1" as="geometry">
            <Array as="points">
              <mxPoint x="740" y="470" />
              <mxPoint x="740" y="275" />
            </Array>
          </mxGeometry>
        </mxCell>
        <mxCell id="o6NXRrJ3ZICEJUwtRlCb-17" value="очередь проблем" style="rounded=0;whiteSpace=wrap;html=1;" vertex="1" parent="1">
          <mxGeometry x="467.5" y="460" width="205" height="20" as="geometry" />
        </mxCell>
        <mxCell id="o6NXRrJ3ZICEJUwtRlCb-37" style="edgeStyle=orthogonalEdgeStyle;rounded=0;orthogonalLoop=1;jettySize=auto;html=1;exitX=1;exitY=0.5;exitDx=0;exitDy=0;entryX=0.25;entryY=1;entryDx=0;entryDy=0;jumpStyle=gap;" edge="1" parent="1" source="o6NXRrJ3ZICEJUwtRlCb-18" target="o6NXRrJ3ZICEJUwtRlCb-8">
          <mxGeometry relative="1" as="geometry" />
        </mxCell>
        <mxCell id="o6NXRrJ3ZICEJUwtRlCb-18" value="очередь запросов к ресурсам" style="rounded=0;whiteSpace=wrap;html=1;" vertex="1" parent="1">
          <mxGeometry x="467.5" y="490" width="202.5" height="20" as="geometry" />
        </mxCell>
        <mxCell id="o6NXRrJ3ZICEJUwtRlCb-23" value="Собрать метрик" style="rounded=0;whiteSpace=wrap;html=1;" vertex="1" parent="1">
          <mxGeometry x="440" y="660" width="240" height="30" as="geometry" />
        </mxCell>
        <mxCell id="o6NXRrJ3ZICEJUwtRlCb-44" style="edgeStyle=orthogonalEdgeStyle;rounded=0;orthogonalLoop=1;jettySize=auto;html=1;exitX=0;exitY=0.25;exitDx=0;exitDy=0;entryX=0.25;entryY=1;entryDx=0;entryDy=0;dashed=1;fillColor=#f8cecc;strokeColor=#b85450;" edge="1" parent="1" source="o6NXRrJ3ZICEJUwtRlCb-25" target="o6NXRrJ3ZICEJUwtRlCb-5">
          <mxGeometry relative="1" as="geometry">
            <Array as="points">
              <mxPoint x="390" y="628" />
              <mxPoint x="390" y="600" />
              <mxPoint x="205" y="600" />
            </Array>
          </mxGeometry>
        </mxCell>
        <mxCell id="o6NXRrJ3ZICEJUwtRlCb-45" value="+ TroubleCoin" style="edgeLabel;html=1;align=center;verticalAlign=middle;resizable=0;points=[];fontColor=#FF3333;" vertex="1" connectable="0" parent="o6NXRrJ3ZICEJUwtRlCb-44">
          <mxGeometry x="-0.3472" y="-2" relative="1" as="geometry">
            <mxPoint x="-10" y="-8" as="offset" />
          </mxGeometry>
        </mxCell>
        <mxCell id="o6NXRrJ3ZICEJUwtRlCb-25" value="Применить проблемы" style="rounded=0;whiteSpace=wrap;html=1;" vertex="1" parent="1">
          <mxGeometry x="440" y="620" width="240" height="30" as="geometry" />
        </mxCell>
        <mxCell id="o6NXRrJ3ZICEJUwtRlCb-33" style="edgeStyle=orthogonalEdgeStyle;rounded=0;orthogonalLoop=1;jettySize=auto;html=1;exitX=1;exitY=0.3333333333333333;exitDx=0;exitDy=0;exitPerimeter=0;dashed=1;entryX=0;entryY=0.5;entryDx=0;entryDy=0;" edge="1" parent="1" source="o6NXRrJ3ZICEJUwtRlCb-30" target="o6NXRrJ3ZICEJUwtRlCb-34">
          <mxGeometry relative="1" as="geometry">
            <mxPoint x="310" y="790" as="targetPoint" />
          </mxGeometry>
        </mxCell>
        <mxCell id="o6NXRrJ3ZICEJUwtRlCb-30" value="Игрок" style="shape=umlActor;verticalLabelPosition=bottom;verticalAlign=top;html=1;outlineConnect=0;" vertex="1" parent="1">
          <mxGeometry x="190" y="740" width="30" height="60" as="geometry" />
        </mxCell>
        <mxCell id="o6NXRrJ3ZICEJUwtRlCb-32" style="edgeStyle=orthogonalEdgeStyle;rounded=0;orthogonalLoop=1;jettySize=auto;html=1;exitX=0;exitY=0.25;exitDx=0;exitDy=0;dashed=1;" edge="1" parent="1" source="o6NXRrJ3ZICEJUwtRlCb-31" target="o6NXRrJ3ZICEJUwtRlCb-30">
          <mxGeometry relative="1" as="geometry" />
        </mxCell>
        <mxCell id="o6NXRrJ3ZICEJUwtRlCb-31" value="Отправить метрику игроку" style="rounded=0;whiteSpace=wrap;html=1;" vertex="1" parent="1">
          <mxGeometry x="440" y="700" width="240" height="30" as="geometry" />
        </mxCell>
        <mxCell id="o6NXRrJ3ZICEJUwtRlCb-34" value="Собрать инпут от игрока" style="rounded=0;whiteSpace=wrap;html=1;" vertex="1" parent="1">
          <mxGeometry x="440" y="740" width="240" height="30" as="geometry" />
        </mxCell>
        <mxCell id="o6NXRrJ3ZICEJUwtRlCb-36" style="edgeStyle=orthogonalEdgeStyle;rounded=0;orthogonalLoop=1;jettySize=auto;html=1;exitX=1;exitY=0.5;exitDx=0;exitDy=0;entryX=0;entryY=0.5;entryDx=0;entryDy=0;startArrow=none;startFill=0;jumpStyle=gap;" edge="1" parent="1" source="o6NXRrJ3ZICEJUwtRlCb-35" target="o6NXRrJ3ZICEJUwtRlCb-18">
          <mxGeometry relative="1" as="geometry">
            <Array as="points">
              <mxPoint x="720" y="795" />
              <mxPoint x="720" y="550" />
              <mxPoint x="448" y="550" />
              <mxPoint x="448" y="500" />
            </Array>
          </mxGeometry>
        </mxCell>
        <mxCell id="o6NXRrJ3ZICEJUwtRlCb-35" value="Активировать вновь запрошенные ресурсы" style="rounded=0;whiteSpace=wrap;html=1;" vertex="1" parent="1">
          <mxGeometry x="440" y="780" width="240" height="30" as="geometry" />
        </mxCell>
        <mxCell id="o6NXRrJ3ZICEJUwtRlCb-40" value="Отнять ресурсы на жизнеобеспечение" style="rounded=0;whiteSpace=wrap;html=1;" vertex="1" parent="1">
          <mxGeometry x="440" y="820" width="240" height="30" as="geometry" />
        </mxCell>
        <mxCell id="o6NXRrJ3ZICEJUwtRlCb-43" style="edgeStyle=orthogonalEdgeStyle;rounded=0;orthogonalLoop=1;jettySize=auto;html=1;exitX=1;exitY=0.5;exitDx=0;exitDy=0;entryX=0.75;entryY=1;entryDx=0;entryDy=0;dashed=1;" edge="1" parent="1" source="o6NXRrJ3ZICEJUwtRlCb-42" target="o6NXRrJ3ZICEJUwtRlCb-8">
          <mxGeometry relative="1" as="geometry" />
        </mxCell>
        <mxCell id="o6NXRrJ3ZICEJUwtRlCb-42" value="Вернуть освободившиеся ресурсы" style="rounded=0;whiteSpace=wrap;html=1;" vertex="1" parent="1">
          <mxGeometry x="440" y="860" width="240" height="30" as="geometry" />
        </mxCell>
        <mxCell id="o6NXRrJ3ZICEJUwtRlCb-48" value="" style="group" vertex="1" connectable="0" parent="1">
          <mxGeometry x="80" y="1040" width="390" height="30" as="geometry" />
        </mxCell>
        <mxCell id="o6NXRrJ3ZICEJUwtRlCb-46" value="" style="endArrow=classic;html=1;rounded=0;" edge="1" parent="o6NXRrJ3ZICEJUwtRlCb-48">
          <mxGeometry width="50" height="50" relative="1" as="geometry">
            <mxPoint y="14.410000000000082" as="sourcePoint" />
            <mxPoint x="70" y="14.410000000000082" as="targetPoint" />
          </mxGeometry>
        </mxCell>
        <mxCell id="o6NXRrJ3ZICEJUwtRlCb-47" value="Асинхронные запросы (черз шину сообщений)" style="text;html=1;align=left;verticalAlign=middle;whiteSpace=wrap;rounded=0;fontStyle=0" vertex="1" parent="o6NXRrJ3ZICEJUwtRlCb-48">
          <mxGeometry x="80" width="320" height="30" as="geometry" />
        </mxCell>
        <mxCell id="o6NXRrJ3ZICEJUwtRlCb-49" value="" style="group" vertex="1" connectable="0" parent="1">
          <mxGeometry x="80" y="1080" width="390" height="30" as="geometry" />
        </mxCell>
        <mxCell id="o6NXRrJ3ZICEJUwtRlCb-50" value="" style="endArrow=classic;html=1;rounded=0;dashed=1;" edge="1" parent="o6NXRrJ3ZICEJUwtRlCb-49">
          <mxGeometry width="50" height="50" relative="1" as="geometry">
            <mxPoint y="14.410000000000082" as="sourcePoint" />
            <mxPoint x="70" y="14.410000000000082" as="targetPoint" />
          </mxGeometry>
        </mxCell>
        <mxCell id="o6NXRrJ3ZICEJUwtRlCb-51" value="Синхронные запросы (REST, в коде await)" style="text;html=1;align=left;verticalAlign=middle;whiteSpace=wrap;rounded=0;" vertex="1" parent="o6NXRrJ3ZICEJUwtRlCb-49">
          <mxGeometry x="80" width="320" height="30" as="geometry" />
        </mxCell>
        <mxCell id="MpuQyKyFSTbepFh6hPgc-1" value="БД&lt;div&gt;SQL&lt;/div&gt;" style="shape=cylinder3;whiteSpace=wrap;html=1;boundedLbl=1;backgroundOutline=1;size=7.428571428571388;" vertex="1" parent="1">
          <mxGeometry x="1310" y="240" width="52.5" height="70" as="geometry" />
        </mxCell>
        <mxCell id="MpuQyKyFSTbepFh6hPgc-6" value="БД&lt;div&gt;NoSQL&lt;/div&gt;" style="shape=cylinder3;whiteSpace=wrap;html=1;boundedLbl=1;backgroundOutline=1;size=7.428571428571388;" vertex="1" parent="1">
          <mxGeometry x="1310" y="155" width="52.5" height="70" as="geometry" />
        </mxCell>
      </root>
    </mxGraphModel>
  </diagram>
  <diagram name="v.0.0.0.2" id="g8SR9boPYnxargy4-quv">
    <mxGraphModel dx="1793" dy="1088" grid="1" gridSize="10" guides="1" tooltips="1" connect="1" arrows="1" fold="1" page="1" pageScale="1" pageWidth="1920" pageHeight="1200" math="0" shadow="0">
      <root>
        <mxCell id="-pohOnXNuDEOGiyrZGvC-0" />
        <mxCell id="-pohOnXNuDEOGiyrZGvC-1" parent="-pohOnXNuDEOGiyrZGvC-0" />
        <mxCell id="DAMzAsxv2v4DKMasLliF-16" value="Итнетрфейс игрока" style="rounded=0;whiteSpace=wrap;html=1;align=center;horizontal=1;labelPosition=center;verticalLabelPosition=top;verticalAlign=bottom;fillColor=#f5f5f5;fontColor=#333333;strokeColor=#CCCCCC;fontStyle=1" vertex="1" parent="-pohOnXNuDEOGiyrZGvC-1">
          <mxGeometry x="1200" y="640" width="290" height="300" as="geometry" />
        </mxCell>
        <mxCell id="-pohOnXNuDEOGiyrZGvC-2" value="Корабль" style="rounded=0;whiteSpace=wrap;html=1;align=center;horizontal=1;labelPosition=center;verticalLabelPosition=top;verticalAlign=bottom;fillColor=#f5f5f5;fontColor=#333333;strokeColor=#CCCCCC;fontStyle=1" vertex="1" parent="-pohOnXNuDEOGiyrZGvC-1">
          <mxGeometry x="770" y="130" width="415" height="210" as="geometry" />
        </mxCell>
        <mxCell id="-pohOnXNuDEOGiyrZGvC-3" value="Игровой контроллер" style="rounded=0;whiteSpace=wrap;html=1;align=center;horizontal=1;labelPosition=center;verticalLabelPosition=top;verticalAlign=bottom;fillColor=#f5f5f5;fontColor=#333333;strokeColor=#CCCCCC;fontStyle=1" vertex="1" parent="-pohOnXNuDEOGiyrZGvC-1">
          <mxGeometry x="410" y="700" width="300" height="250" as="geometry" />
        </mxCell>
        <mxCell id="-pohOnXNuDEOGiyrZGvC-5" style="edgeStyle=orthogonalEdgeStyle;rounded=0;orthogonalLoop=1;jettySize=auto;html=1;exitX=1;exitY=0.5;exitDx=0;exitDy=0;entryX=0;entryY=0.5;entryDx=0;entryDy=0;dashed=1;fillColor=#ffe6cc;strokeColor=#d79b00;" edge="1" parent="-pohOnXNuDEOGiyrZGvC-1" source="-pohOnXNuDEOGiyrZGvC-13" target="-pohOnXNuDEOGiyrZGvC-34">
          <mxGeometry relative="1" as="geometry">
            <Array as="points">
              <mxPoint x="860" y="905" />
            </Array>
          </mxGeometry>
        </mxCell>
        <mxCell id="-pohOnXNuDEOGiyrZGvC-6" value="метрики корабля" style="edgeLabel;html=1;align=center;verticalAlign=middle;resizable=0;points=[];" vertex="1" connectable="0" parent="-pohOnXNuDEOGiyrZGvC-5">
          <mxGeometry x="0.6411" y="5" relative="1" as="geometry">
            <mxPoint x="-1" y="-5" as="offset" />
          </mxGeometry>
        </mxCell>
        <mxCell id="-pohOnXNuDEOGiyrZGvC-7" value="Шина сообщний" style="rounded=0;whiteSpace=wrap;html=1;shadow=0;glass=0;labelPosition=center;verticalLabelPosition=top;align=center;verticalAlign=bottom;fillColor=#f5f5f5;fontColor=#333333;strokeColor=#CCCCCC;fontStyle=1" vertex="1" parent="-pohOnXNuDEOGiyrZGvC-1">
          <mxGeometry x="440" y="440" width="260" height="150" as="geometry" />
        </mxCell>
        <mxCell id="-pohOnXNuDEOGiyrZGvC-9" value="Генератор проблем" style="rounded=0;whiteSpace=wrap;html=1;align=center;horizontal=1;labelPosition=center;verticalLabelPosition=top;verticalAlign=bottom;fillColor=#f5f5f5;fontColor=#333333;strokeColor=#CCCCCC;fontStyle=1" vertex="1" parent="-pohOnXNuDEOGiyrZGvC-1">
          <mxGeometry x="135" y="130" width="365" height="210" as="geometry" />
        </mxCell>
        <mxCell id="-pohOnXNuDEOGiyrZGvC-12" value="сохраннение состояния" style="edgeStyle=orthogonalEdgeStyle;rounded=0;orthogonalLoop=1;jettySize=auto;html=1;exitX=0.25;exitY=0;exitDx=0;exitDy=0;startArrow=classic;startFill=1;dashed=1;dashPattern=1 4;entryX=0;entryY=0.5;entryDx=0;entryDy=0;entryPerimeter=0;" edge="1" parent="-pohOnXNuDEOGiyrZGvC-1" source="-pohOnXNuDEOGiyrZGvC-13" target="-pohOnXNuDEOGiyrZGvC-47">
          <mxGeometry relative="1" as="geometry">
            <Array as="points">
              <mxPoint x="970" y="210" />
              <mxPoint x="970" y="150" />
            </Array>
          </mxGeometry>
        </mxCell>
        <mxCell id="DAMzAsxv2v4DKMasLliF-28" style="edgeStyle=orthogonalEdgeStyle;rounded=0;orthogonalLoop=1;jettySize=auto;html=1;exitX=1;exitY=0.25;exitDx=0;exitDy=0;entryX=0;entryY=0.5;entryDx=0;entryDy=0;dashed=1;" edge="1" parent="-pohOnXNuDEOGiyrZGvC-1" source="-pohOnXNuDEOGiyrZGvC-13" target="DAMzAsxv2v4DKMasLliF-21">
          <mxGeometry relative="1" as="geometry">
            <Array as="points">
              <mxPoint x="885" y="820" />
            </Array>
          </mxGeometry>
        </mxCell>
        <mxCell id="DAMzAsxv2v4DKMasLliF-29" style="edgeStyle=orthogonalEdgeStyle;rounded=0;orthogonalLoop=1;jettySize=auto;html=1;entryX=0;entryY=0.5;entryDx=0;entryDy=0;dashed=1;exitX=1;exitY=0.25;exitDx=0;exitDy=0;" edge="1" parent="-pohOnXNuDEOGiyrZGvC-1" source="-pohOnXNuDEOGiyrZGvC-13" target="DAMzAsxv2v4DKMasLliF-17">
          <mxGeometry relative="1" as="geometry">
            <mxPoint x="890" y="285" as="sourcePoint" />
            <Array as="points">
              <mxPoint x="885" y="865" />
            </Array>
          </mxGeometry>
        </mxCell>
        <mxCell id="Y5h9rI-TQTiruQgf1Fa3-2" style="edgeStyle=orthogonalEdgeStyle;rounded=0;orthogonalLoop=1;jettySize=auto;html=1;exitX=0.75;exitY=0;exitDx=0;exitDy=0;entryX=0;entryY=0.75;entryDx=0;entryDy=0;dashed=1;dashPattern=1 4;" edge="1" parent="-pohOnXNuDEOGiyrZGvC-1" source="-pohOnXNuDEOGiyrZGvC-13" target="-pohOnXNuDEOGiyrZGvC-17">
          <mxGeometry relative="1" as="geometry">
            <mxPoint x="1030" y="259.7037037037037" as="targetPoint" />
          </mxGeometry>
        </mxCell>
        <mxCell id="Y5h9rI-TQTiruQgf1Fa3-4" value="освободить" style="edgeLabel;html=1;align=center;verticalAlign=middle;resizable=0;points=[];" vertex="1" connectable="0" parent="Y5h9rI-TQTiruQgf1Fa3-2">
          <mxGeometry x="-0.1609" y="2" relative="1" as="geometry">
            <mxPoint x="12" as="offset" />
          </mxGeometry>
        </mxCell>
        <mxCell id="GOW6Z6KdIB5SyexLeBnT-2" style="edgeStyle=orthogonalEdgeStyle;rounded=0;orthogonalLoop=1;jettySize=auto;html=1;exitX=1;exitY=0.25;exitDx=0;exitDy=0;entryX=0;entryY=0.5;entryDx=0;entryDy=0;dashed=1;" edge="1" parent="-pohOnXNuDEOGiyrZGvC-1" source="-pohOnXNuDEOGiyrZGvC-13" target="GOW6Z6KdIB5SyexLeBnT-1">
          <mxGeometry relative="1" as="geometry" />
        </mxCell>
        <mxCell id="-pohOnXNuDEOGiyrZGvC-13" value="Состояние" style="rounded=0;whiteSpace=wrap;html=1;labelPosition=center;verticalLabelPosition=top;align=center;verticalAlign=bottom;direction=south;" vertex="1" parent="-pohOnXNuDEOGiyrZGvC-1">
          <mxGeometry x="810" y="185" width="100" height="100" as="geometry" />
        </mxCell>
        <mxCell id="-pohOnXNuDEOGiyrZGvC-14" style="edgeStyle=orthogonalEdgeStyle;rounded=0;orthogonalLoop=1;jettySize=auto;html=1;exitX=0.25;exitY=1;exitDx=0;exitDy=0;entryX=0;entryY=0.5;entryDx=0;entryDy=0;jumpStyle=gap;" edge="1" parent="-pohOnXNuDEOGiyrZGvC-1" source="-pohOnXNuDEOGiyrZGvC-17" target="DAMzAsxv2v4DKMasLliF-40">
          <mxGeometry relative="1" as="geometry">
            <Array as="points">
              <mxPoint x="1057" y="600" />
              <mxPoint x="420" y="600" />
              <mxPoint x="420" y="560" />
            </Array>
          </mxGeometry>
        </mxCell>
        <mxCell id="-pohOnXNuDEOGiyrZGvC-15" value="Новый ресурс доступен" style="edgeLabel;html=1;align=center;verticalAlign=middle;resizable=0;points=[];" vertex="1" connectable="0" parent="-pohOnXNuDEOGiyrZGvC-14">
          <mxGeometry x="-0.0074" relative="1" as="geometry">
            <mxPoint x="134" y="-10" as="offset" />
          </mxGeometry>
        </mxCell>
        <mxCell id="-pohOnXNuDEOGiyrZGvC-16" style="edgeStyle=orthogonalEdgeStyle;rounded=0;orthogonalLoop=1;jettySize=auto;html=1;exitX=1;exitY=0.5;exitDx=0;exitDy=0;startArrow=classic;startFill=1;dashed=1;dashPattern=1 4;" edge="1" parent="-pohOnXNuDEOGiyrZGvC-1" source="-pohOnXNuDEOGiyrZGvC-17" target="-pohOnXNuDEOGiyrZGvC-46">
          <mxGeometry relative="1" as="geometry" />
        </mxCell>
        <mxCell id="GOW6Z6KdIB5SyexLeBnT-3" value="сохранеие состояния" style="edgeLabel;html=1;align=center;verticalAlign=middle;resizable=0;points=[];" vertex="1" connectable="0" parent="-pohOnXNuDEOGiyrZGvC-16">
          <mxGeometry x="0.0211" relative="1" as="geometry">
            <mxPoint x="-1" y="-1" as="offset" />
          </mxGeometry>
        </mxCell>
        <mxCell id="DAMzAsxv2v4DKMasLliF-27" style="edgeStyle=orthogonalEdgeStyle;rounded=0;orthogonalLoop=1;jettySize=auto;html=1;exitX=0.75;exitY=1;exitDx=0;exitDy=0;entryX=0;entryY=0.5;entryDx=0;entryDy=0;dashed=1;" edge="1" parent="-pohOnXNuDEOGiyrZGvC-1" source="-pohOnXNuDEOGiyrZGvC-17" target="DAMzAsxv2v4DKMasLliF-22">
          <mxGeometry relative="1" as="geometry">
            <mxPoint x="1100" y="710" as="targetPoint" />
          </mxGeometry>
        </mxCell>
        <mxCell id="Y5h9rI-TQTiruQgf1Fa3-0" style="edgeStyle=orthogonalEdgeStyle;rounded=0;orthogonalLoop=1;jettySize=auto;html=1;exitX=0;exitY=0.5;exitDx=0;exitDy=0;dashed=1;dashPattern=1 4;" edge="1" parent="-pohOnXNuDEOGiyrZGvC-1" source="-pohOnXNuDEOGiyrZGvC-17" target="-pohOnXNuDEOGiyrZGvC-13">
          <mxGeometry relative="1" as="geometry" />
        </mxCell>
        <mxCell id="Y5h9rI-TQTiruQgf1Fa3-3" value="выделен" style="edgeLabel;html=1;align=center;verticalAlign=middle;resizable=0;points=[];" vertex="1" connectable="0" parent="Y5h9rI-TQTiruQgf1Fa3-0">
          <mxGeometry x="0.0068" y="-1" relative="1" as="geometry">
            <mxPoint as="offset" />
          </mxGeometry>
        </mxCell>
        <mxCell id="-pohOnXNuDEOGiyrZGvC-17" value="Ресурсы" style="rounded=0;whiteSpace=wrap;html=1;labelPosition=center;verticalLabelPosition=top;align=center;verticalAlign=bottom;" vertex="1" parent="-pohOnXNuDEOGiyrZGvC-1">
          <mxGeometry x="1035" y="185" width="90" height="100" as="geometry" />
        </mxCell>
        <mxCell id="-pohOnXNuDEOGiyrZGvC-22" style="edgeStyle=orthogonalEdgeStyle;rounded=0;orthogonalLoop=1;jettySize=auto;html=1;exitX=1;exitY=0.5;exitDx=0;exitDy=0;" edge="1" parent="-pohOnXNuDEOGiyrZGvC-1" source="-pohOnXNuDEOGiyrZGvC-23">
          <mxGeometry relative="1" as="geometry">
            <mxPoint x="810" y="200" as="targetPoint" />
            <Array as="points">
              <mxPoint x="730" y="470" />
              <mxPoint x="730" y="200" />
            </Array>
          </mxGeometry>
        </mxCell>
        <mxCell id="-pohOnXNuDEOGiyrZGvC-23" value="очередь проблем" style="rounded=0;whiteSpace=wrap;html=1;" vertex="1" parent="-pohOnXNuDEOGiyrZGvC-1">
          <mxGeometry x="467.5" y="460" width="205" height="20" as="geometry" />
        </mxCell>
        <mxCell id="-pohOnXNuDEOGiyrZGvC-25" value="очередь запросов к ресурсам" style="rounded=0;whiteSpace=wrap;html=1;" vertex="1" parent="-pohOnXNuDEOGiyrZGvC-1">
          <mxGeometry x="468.75" y="520" width="202.5" height="20" as="geometry" />
        </mxCell>
        <mxCell id="-pohOnXNuDEOGiyrZGvC-29" value="Новый ход" style="rounded=0;whiteSpace=wrap;html=1;" vertex="1" parent="-pohOnXNuDEOGiyrZGvC-1">
          <mxGeometry x="440" y="725" width="240" height="30" as="geometry" />
        </mxCell>
        <mxCell id="DAMzAsxv2v4DKMasLliF-31" style="edgeStyle=orthogonalEdgeStyle;rounded=0;orthogonalLoop=1;jettySize=auto;html=1;exitX=1;exitY=0.3333333333333333;exitDx=0;exitDy=0;exitPerimeter=0;entryX=0.75;entryY=1;entryDx=0;entryDy=0;dashed=1;dashPattern=1 1;" edge="1" parent="-pohOnXNuDEOGiyrZGvC-1" source="-pohOnXNuDEOGiyrZGvC-31" target="DAMzAsxv2v4DKMasLliF-16">
          <mxGeometry relative="1" as="geometry">
            <Array as="points">
              <mxPoint x="1070" y="1050" />
              <mxPoint x="1070" y="990" />
              <mxPoint x="1418" y="990" />
            </Array>
          </mxGeometry>
        </mxCell>
        <mxCell id="DAMzAsxv2v4DKMasLliF-32" value="запрос метрик" style="edgeLabel;html=1;align=center;verticalAlign=middle;resizable=0;points=[];" vertex="1" connectable="0" parent="DAMzAsxv2v4DKMasLliF-31">
          <mxGeometry x="-0.1824" y="4" relative="1" as="geometry">
            <mxPoint x="98" y="4" as="offset" />
          </mxGeometry>
        </mxCell>
        <mxCell id="-pohOnXNuDEOGiyrZGvC-31" value="Игрок" style="shape=umlActor;verticalLabelPosition=bottom;verticalAlign=top;html=1;outlineConnect=0;" vertex="1" parent="-pohOnXNuDEOGiyrZGvC-1">
          <mxGeometry x="960" y="1030" width="30" height="60" as="geometry" />
        </mxCell>
        <mxCell id="-pohOnXNuDEOGiyrZGvC-32" style="edgeStyle=orthogonalEdgeStyle;rounded=0;orthogonalLoop=1;jettySize=auto;html=1;exitX=0.5;exitY=1;exitDx=0;exitDy=0;dashed=1;dashPattern=1 1;" edge="1" parent="-pohOnXNuDEOGiyrZGvC-1" source="DAMzAsxv2v4DKMasLliF-16" target="-pohOnXNuDEOGiyrZGvC-31">
          <mxGeometry relative="1" as="geometry">
            <Array as="points">
              <mxPoint x="1345" y="970" />
              <mxPoint x="975" y="970" />
            </Array>
          </mxGeometry>
        </mxCell>
        <mxCell id="DAMzAsxv2v4DKMasLliF-30" value="текущие метрики" style="edgeLabel;html=1;align=center;verticalAlign=middle;resizable=0;points=[];" vertex="1" connectable="0" parent="-pohOnXNuDEOGiyrZGvC-32">
          <mxGeometry x="-0.3959" y="-1" relative="1" as="geometry">
            <mxPoint as="offset" />
          </mxGeometry>
        </mxCell>
        <mxCell id="BldTh-OTkvdOwdGsdVuB-0" style="edgeStyle=orthogonalEdgeStyle;rounded=0;orthogonalLoop=1;jettySize=auto;html=1;exitX=0.25;exitY=1;exitDx=0;exitDy=0;entryX=0;entryY=0.5;entryDx=0;entryDy=0;dashed=1;" edge="1" parent="-pohOnXNuDEOGiyrZGvC-1" source="-pohOnXNuDEOGiyrZGvC-34" target="-pohOnXNuDEOGiyrZGvC-36">
          <mxGeometry relative="1" as="geometry">
            <Array as="points">
              <mxPoint x="1290" y="950" />
              <mxPoint x="850" y="950" />
              <mxPoint x="850" y="1020" />
              <mxPoint x="310" y="1020" />
              <mxPoint x="310" y="880" />
            </Array>
          </mxGeometry>
        </mxCell>
        <mxCell id="BldTh-OTkvdOwdGsdVuB-5" value="ход игрока" style="edgeLabel;html=1;align=center;verticalAlign=middle;resizable=0;points=[];" vertex="1" connectable="0" parent="BldTh-OTkvdOwdGsdVuB-0">
          <mxGeometry x="-0.1261" relative="1" as="geometry">
            <mxPoint as="offset" />
          </mxGeometry>
        </mxCell>
        <mxCell id="-pohOnXNuDEOGiyrZGvC-34" value="Доступен инпут от игрока" style="rounded=0;whiteSpace=wrap;html=1;" vertex="1" parent="-pohOnXNuDEOGiyrZGvC-1">
          <mxGeometry x="1230" y="890" width="230" height="30" as="geometry" />
        </mxCell>
        <mxCell id="-pohOnXNuDEOGiyrZGvC-36" value="Активировать вновь запрошенные ресурсы" style="rounded=0;whiteSpace=wrap;html=1;" vertex="1" parent="-pohOnXNuDEOGiyrZGvC-1">
          <mxGeometry x="440" y="780" width="240" height="30" as="geometry" />
        </mxCell>
        <mxCell id="DAMzAsxv2v4DKMasLliF-46" style="edgeStyle=orthogonalEdgeStyle;rounded=0;orthogonalLoop=1;jettySize=auto;html=1;exitX=0.5;exitY=1;exitDx=0;exitDy=0;entryX=0.5;entryY=0;entryDx=0;entryDy=0;" edge="1" parent="-pohOnXNuDEOGiyrZGvC-1" source="-pohOnXNuDEOGiyrZGvC-37" target="-pohOnXNuDEOGiyrZGvC-39">
          <mxGeometry relative="1" as="geometry" />
        </mxCell>
        <mxCell id="-pohOnXNuDEOGiyrZGvC-37" value="Ожидаем выделение ресурса" style="rounded=0;whiteSpace=wrap;html=1;" vertex="1" parent="-pohOnXNuDEOGiyrZGvC-1">
          <mxGeometry x="440" y="840" width="240" height="30" as="geometry" />
        </mxCell>
        <mxCell id="-pohOnXNuDEOGiyrZGvC-39" value="Ход завершен" style="rounded=0;whiteSpace=wrap;html=1;" vertex="1" parent="-pohOnXNuDEOGiyrZGvC-1">
          <mxGeometry x="440" y="890" width="240" height="30" as="geometry" />
        </mxCell>
        <mxCell id="-pohOnXNuDEOGiyrZGvC-40" value="" style="group" vertex="1" connectable="0" parent="-pohOnXNuDEOGiyrZGvC-1">
          <mxGeometry x="80" y="1040" width="390" height="30" as="geometry" />
        </mxCell>
        <mxCell id="-pohOnXNuDEOGiyrZGvC-41" value="" style="endArrow=classic;html=1;rounded=0;" edge="1" parent="-pohOnXNuDEOGiyrZGvC-40">
          <mxGeometry width="50" height="50" relative="1" as="geometry">
            <mxPoint y="14.410000000000082" as="sourcePoint" />
            <mxPoint x="70" y="14.410000000000082" as="targetPoint" />
          </mxGeometry>
        </mxCell>
        <mxCell id="-pohOnXNuDEOGiyrZGvC-42" value="Асинхронные запросы (черз шину сообщений)" style="text;html=1;align=left;verticalAlign=middle;whiteSpace=wrap;rounded=0;fontStyle=0" vertex="1" parent="-pohOnXNuDEOGiyrZGvC-40">
          <mxGeometry x="80" width="320" height="30" as="geometry" />
        </mxCell>
        <mxCell id="-pohOnXNuDEOGiyrZGvC-43" value="" style="group" vertex="1" connectable="0" parent="-pohOnXNuDEOGiyrZGvC-1">
          <mxGeometry x="80" y="1080" width="390" height="30" as="geometry" />
        </mxCell>
        <mxCell id="-pohOnXNuDEOGiyrZGvC-44" value="" style="endArrow=classic;html=1;rounded=0;dashed=1;dashPattern=1 1;" edge="1" parent="-pohOnXNuDEOGiyrZGvC-43">
          <mxGeometry width="50" height="50" relative="1" as="geometry">
            <mxPoint y="14.410000000000082" as="sourcePoint" />
            <mxPoint x="70" y="14.410000000000082" as="targetPoint" />
          </mxGeometry>
        </mxCell>
        <mxCell id="-pohOnXNuDEOGiyrZGvC-45" value="Синхронные запросы (REST, в коде await)" style="text;html=1;align=left;verticalAlign=middle;whiteSpace=wrap;rounded=0;" vertex="1" parent="-pohOnXNuDEOGiyrZGvC-43">
          <mxGeometry x="80" width="320" height="30" as="geometry" />
        </mxCell>
        <mxCell id="-pohOnXNuDEOGiyrZGvC-46" value="БД&lt;div&gt;SQL&lt;/div&gt;" style="shape=cylinder3;whiteSpace=wrap;html=1;boundedLbl=1;backgroundOutline=1;size=7.428571428571388;" vertex="1" parent="-pohOnXNuDEOGiyrZGvC-1">
          <mxGeometry x="1315" y="200" width="52.5" height="70" as="geometry" />
        </mxCell>
        <mxCell id="-pohOnXNuDEOGiyrZGvC-47" value="БД&lt;div&gt;NoSQL&lt;/div&gt;" style="shape=cylinder3;whiteSpace=wrap;html=1;boundedLbl=1;backgroundOutline=1;size=7.428571428571388;" vertex="1" parent="-pohOnXNuDEOGiyrZGvC-1">
          <mxGeometry x="1315" y="115" width="52.5" height="70" as="geometry" />
        </mxCell>
        <mxCell id="DAMzAsxv2v4DKMasLliF-2" style="edgeStyle=orthogonalEdgeStyle;rounded=0;orthogonalLoop=1;jettySize=auto;html=1;exitX=1;exitY=0.25;exitDx=0;exitDy=0;entryX=0;entryY=0.5;entryDx=0;entryDy=0;jumpStyle=gap;" edge="1" parent="-pohOnXNuDEOGiyrZGvC-1" source="DAMzAsxv2v4DKMasLliF-0" target="DAMzAsxv2v4DKMasLliF-9">
          <mxGeometry relative="1" as="geometry">
            <Array as="points">
              <mxPoint x="710" y="495" />
              <mxPoint x="710" y="80" />
              <mxPoint x="90" y="80" />
              <mxPoint x="90" y="185" />
            </Array>
          </mxGeometry>
        </mxCell>
        <mxCell id="DAMzAsxv2v4DKMasLliF-3" value="новый ход" style="edgeLabel;html=1;align=center;verticalAlign=middle;resizable=0;points=[];" vertex="1" connectable="0" parent="DAMzAsxv2v4DKMasLliF-2">
          <mxGeometry x="0.3917" y="-1" relative="1" as="geometry">
            <mxPoint x="-21" y="1" as="offset" />
          </mxGeometry>
        </mxCell>
        <mxCell id="DAMzAsxv2v4DKMasLliF-0" value="события хода игры" style="rounded=0;whiteSpace=wrap;html=1;" vertex="1" parent="-pohOnXNuDEOGiyrZGvC-1">
          <mxGeometry x="467.5" y="490" width="205" height="20" as="geometry" />
        </mxCell>
        <mxCell id="DAMzAsxv2v4DKMasLliF-47" style="edgeStyle=orthogonalEdgeStyle;rounded=0;orthogonalLoop=1;jettySize=auto;html=1;exitX=0.5;exitY=1;exitDx=0;exitDy=0;entryX=0.5;entryY=0;entryDx=0;entryDy=0;" edge="1" parent="-pohOnXNuDEOGiyrZGvC-1" source="DAMzAsxv2v4DKMasLliF-9" target="DAMzAsxv2v4DKMasLliF-11">
          <mxGeometry relative="1" as="geometry" />
        </mxCell>
        <mxCell id="BldTh-OTkvdOwdGsdVuB-1" style="edgeStyle=orthogonalEdgeStyle;rounded=0;orthogonalLoop=1;jettySize=auto;html=1;exitX=1;exitY=0.5;exitDx=0;exitDy=0;entryX=1;entryY=0.5;entryDx=0;entryDy=0;fillColor=#e1d5e7;strokeColor=#9673a6;" edge="1" parent="-pohOnXNuDEOGiyrZGvC-1" source="DAMzAsxv2v4DKMasLliF-9" target="DAMzAsxv2v4DKMasLliF-11">
          <mxGeometry relative="1" as="geometry" />
        </mxCell>
        <mxCell id="BldTh-OTkvdOwdGsdVuB-2" value="TroubleCoin++" style="edgeLabel;html=1;align=center;verticalAlign=middle;resizable=0;points=[];" vertex="1" connectable="0" parent="BldTh-OTkvdOwdGsdVuB-1">
          <mxGeometry x="0.0058" y="-1" relative="1" as="geometry">
            <mxPoint x="41" as="offset" />
          </mxGeometry>
        </mxCell>
        <mxCell id="DAMzAsxv2v4DKMasLliF-9" value="Ожидаем событе начала хода" style="rounded=0;whiteSpace=wrap;html=1;" vertex="1" parent="-pohOnXNuDEOGiyrZGvC-1">
          <mxGeometry x="160" y="170" width="240" height="30" as="geometry" />
        </mxCell>
        <mxCell id="DAMzAsxv2v4DKMasLliF-48" style="edgeStyle=orthogonalEdgeStyle;rounded=0;orthogonalLoop=1;jettySize=auto;html=1;exitX=0.5;exitY=1;exitDx=0;exitDy=0;entryX=0.5;entryY=0;entryDx=0;entryDy=0;" edge="1" parent="-pohOnXNuDEOGiyrZGvC-1" source="DAMzAsxv2v4DKMasLliF-11" target="DAMzAsxv2v4DKMasLliF-12">
          <mxGeometry relative="1" as="geometry" />
        </mxCell>
        <mxCell id="DAMzAsxv2v4DKMasLliF-11" value="Генератор проблем (randomizer)" style="rounded=0;whiteSpace=wrap;html=1;" vertex="1" parent="-pohOnXNuDEOGiyrZGvC-1">
          <mxGeometry x="160" y="220" width="240" height="30" as="geometry" />
        </mxCell>
        <mxCell id="DAMzAsxv2v4DKMasLliF-12" value="Публикуем событие" style="rounded=0;whiteSpace=wrap;html=1;" vertex="1" parent="-pohOnXNuDEOGiyrZGvC-1">
          <mxGeometry x="160" y="270" width="240" height="30" as="geometry" />
        </mxCell>
        <mxCell id="-pohOnXNuDEOGiyrZGvC-8" style="edgeStyle=orthogonalEdgeStyle;rounded=0;orthogonalLoop=1;jettySize=auto;html=1;exitX=1;exitY=0.5;exitDx=0;exitDy=0;entryX=0;entryY=0.5;entryDx=0;entryDy=0;" edge="1" parent="-pohOnXNuDEOGiyrZGvC-1" source="DAMzAsxv2v4DKMasLliF-12" target="-pohOnXNuDEOGiyrZGvC-23">
          <mxGeometry relative="1" as="geometry">
            <Array as="points">
              <mxPoint x="520" y="285" />
              <mxPoint x="520" y="380" />
              <mxPoint x="320" y="380" />
              <mxPoint x="320" y="470" />
            </Array>
          </mxGeometry>
        </mxCell>
        <mxCell id="DAMzAsxv2v4DKMasLliF-4" value="отправляем проблему или&amp;nbsp;&lt;div&gt;сообщение, что новых проблем нет&lt;/div&gt;" style="edgeLabel;html=1;align=left;verticalAlign=middle;resizable=0;points=[];" vertex="1" connectable="0" parent="-pohOnXNuDEOGiyrZGvC-8">
          <mxGeometry x="-0.6049" y="2" relative="1" as="geometry">
            <mxPoint x="-202" y="66" as="offset" />
          </mxGeometry>
        </mxCell>
        <mxCell id="DAMzAsxv2v4DKMasLliF-15" value="&lt;b&gt;&lt;i&gt;WS / SignalR&lt;/i&gt;&lt;/b&gt;" style="text;html=1;align=center;verticalAlign=middle;resizable=0;points=[];autosize=1;strokeColor=none;fillColor=none;" vertex="1" parent="-pohOnXNuDEOGiyrZGvC-1">
          <mxGeometry x="910" y="695" width="100" height="30" as="geometry" />
        </mxCell>
        <mxCell id="DAMzAsxv2v4DKMasLliF-17" value="Текущий ход (номер дня)" style="rounded=0;whiteSpace=wrap;html=1;" vertex="1" parent="-pohOnXNuDEOGiyrZGvC-1">
          <mxGeometry x="1230" y="850" width="230" height="30" as="geometry" />
        </mxCell>
        <mxCell id="DAMzAsxv2v4DKMasLliF-20" value="Наличие проблем" style="rounded=0;whiteSpace=wrap;html=1;" vertex="1" parent="-pohOnXNuDEOGiyrZGvC-1">
          <mxGeometry x="1230" y="760" width="230" height="30" as="geometry" />
        </mxCell>
        <mxCell id="DAMzAsxv2v4DKMasLliF-21" value="Используемые ресурсы" style="rounded=0;whiteSpace=wrap;html=1;" vertex="1" parent="-pohOnXNuDEOGiyrZGvC-1">
          <mxGeometry x="1230" y="805" width="230" height="30" as="geometry" />
        </mxCell>
        <mxCell id="DAMzAsxv2v4DKMasLliF-22" value="Доступные ресурсы" style="rounded=0;whiteSpace=wrap;html=1;" vertex="1" parent="-pohOnXNuDEOGiyrZGvC-1">
          <mxGeometry x="1226.25" y="665" width="230" height="30" as="geometry" />
        </mxCell>
        <mxCell id="DAMzAsxv2v4DKMasLliF-24" style="edgeStyle=orthogonalEdgeStyle;rounded=0;orthogonalLoop=1;jettySize=auto;html=1;exitX=1;exitY=0.25;exitDx=0;exitDy=0;entryX=0;entryY=0.5;entryDx=0;entryDy=0;dashed=1;" edge="1" parent="-pohOnXNuDEOGiyrZGvC-1" source="-pohOnXNuDEOGiyrZGvC-13" target="DAMzAsxv2v4DKMasLliF-20">
          <mxGeometry relative="1" as="geometry">
            <Array as="points">
              <mxPoint x="885" y="775" />
            </Array>
          </mxGeometry>
        </mxCell>
        <mxCell id="-pohOnXNuDEOGiyrZGvC-24" style="edgeStyle=orthogonalEdgeStyle;rounded=0;orthogonalLoop=1;jettySize=auto;html=1;exitX=1;exitY=0.5;exitDx=0;exitDy=0;jumpStyle=gap;entryX=0.009;entryY=0.932;entryDx=0;entryDy=0;entryPerimeter=0;" edge="1" parent="-pohOnXNuDEOGiyrZGvC-1" source="-pohOnXNuDEOGiyrZGvC-25" target="-pohOnXNuDEOGiyrZGvC-17">
          <mxGeometry relative="1" as="geometry">
            <mxPoint x="1030" y="280" as="targetPoint" />
            <Array as="points">
              <mxPoint x="990" y="530" />
              <mxPoint x="990" y="278" />
            </Array>
          </mxGeometry>
        </mxCell>
        <mxCell id="DAMzAsxv2v4DKMasLliF-34" value="&lt;b&gt;&lt;i&gt;REST API&lt;/i&gt;&lt;/b&gt;" style="text;html=1;align=center;verticalAlign=middle;resizable=0;points=[];autosize=1;strokeColor=none;fillColor=none;" vertex="1" parent="-pohOnXNuDEOGiyrZGvC-1">
          <mxGeometry x="1340" y="945" width="80" height="30" as="geometry" />
        </mxCell>
        <mxCell id="DAMzAsxv2v4DKMasLliF-36" style="edgeStyle=orthogonalEdgeStyle;rounded=0;orthogonalLoop=1;jettySize=auto;html=1;exitX=1;exitY=0.75;exitDx=0;exitDy=0;entryX=0.75;entryY=1;entryDx=0;entryDy=0;fillColor=#f8cecc;strokeColor=#000000;" edge="1" parent="-pohOnXNuDEOGiyrZGvC-1" source="DAMzAsxv2v4DKMasLliF-0" target="-pohOnXNuDEOGiyrZGvC-13">
          <mxGeometry relative="1" as="geometry" />
        </mxCell>
        <mxCell id="Y5h9rI-TQTiruQgf1Fa3-7" value="ход&lt;div&gt;завершен&lt;/div&gt;" style="edgeLabel;html=1;align=center;verticalAlign=middle;resizable=0;points=[];" vertex="1" connectable="0" parent="DAMzAsxv2v4DKMasLliF-36">
          <mxGeometry x="0.7386" y="-1" relative="1" as="geometry">
            <mxPoint x="10" y="-21" as="offset" />
          </mxGeometry>
        </mxCell>
        <mxCell id="DAMzAsxv2v4DKMasLliF-45" style="edgeStyle=orthogonalEdgeStyle;rounded=0;orthogonalLoop=1;jettySize=auto;html=1;exitX=1;exitY=0.5;exitDx=0;exitDy=0;entryX=0;entryY=0.5;entryDx=0;entryDy=0;jumpStyle=gap;" edge="1" parent="-pohOnXNuDEOGiyrZGvC-1" source="DAMzAsxv2v4DKMasLliF-40" target="-pohOnXNuDEOGiyrZGvC-37">
          <mxGeometry relative="1" as="geometry">
            <Array as="points">
              <mxPoint x="750" y="560" />
              <mxPoint x="750" y="650" />
              <mxPoint x="390" y="650" />
              <mxPoint x="390" y="855" />
            </Array>
          </mxGeometry>
        </mxCell>
        <mxCell id="DAMzAsxv2v4DKMasLliF-40" value="события ресурсов (ответ)" style="rounded=0;whiteSpace=wrap;html=1;" vertex="1" parent="-pohOnXNuDEOGiyrZGvC-1">
          <mxGeometry x="468.75" y="550" width="202.5" height="20" as="geometry" />
        </mxCell>
        <mxCell id="DAMzAsxv2v4DKMasLliF-1" style="edgeStyle=orthogonalEdgeStyle;rounded=0;orthogonalLoop=1;jettySize=auto;html=1;exitX=1;exitY=0.5;exitDx=0;exitDy=0;entryX=0;entryY=0.25;entryDx=0;entryDy=0;jumpStyle=gap;" edge="1" parent="-pohOnXNuDEOGiyrZGvC-1" source="-pohOnXNuDEOGiyrZGvC-29" target="DAMzAsxv2v4DKMasLliF-0">
          <mxGeometry relative="1" as="geometry">
            <Array as="points">
              <mxPoint x="720" y="740" />
              <mxPoint x="720" y="640" />
              <mxPoint x="360" y="640" />
              <mxPoint x="360" y="495" />
            </Array>
          </mxGeometry>
        </mxCell>
        <mxCell id="DAMzAsxv2v4DKMasLliF-43" value="Redis/Mongo" style="text;html=1;align=left;verticalAlign=middle;resizable=0;points=[];autosize=1;strokeColor=none;fillColor=none;" vertex="1" parent="-pohOnXNuDEOGiyrZGvC-1">
          <mxGeometry x="1370" y="135" width="90" height="30" as="geometry" />
        </mxCell>
        <mxCell id="DAMzAsxv2v4DKMasLliF-44" value="Postgre" style="text;html=1;align=left;verticalAlign=middle;resizable=0;points=[];autosize=1;strokeColor=none;fillColor=none;" vertex="1" parent="-pohOnXNuDEOGiyrZGvC-1">
          <mxGeometry x="1370" y="220" width="60" height="30" as="geometry" />
        </mxCell>
        <mxCell id="DAMzAsxv2v4DKMasLliF-41" style="edgeStyle=orthogonalEdgeStyle;rounded=0;orthogonalLoop=1;jettySize=auto;html=1;exitX=1;exitY=0.5;exitDx=0;exitDy=0;entryX=0;entryY=0.75;entryDx=0;entryDy=0;jumpStyle=gap;" edge="1" parent="-pohOnXNuDEOGiyrZGvC-1" source="-pohOnXNuDEOGiyrZGvC-39" target="DAMzAsxv2v4DKMasLliF-0">
          <mxGeometry relative="1" as="geometry">
            <Array as="points">
              <mxPoint x="730" y="905" />
              <mxPoint x="730" y="630" />
              <mxPoint x="370" y="630" />
              <mxPoint x="370" y="505" />
            </Array>
          </mxGeometry>
        </mxCell>
        <mxCell id="-pohOnXNuDEOGiyrZGvC-35" style="edgeStyle=orthogonalEdgeStyle;rounded=0;orthogonalLoop=1;jettySize=auto;html=1;exitX=1;exitY=0.5;exitDx=0;exitDy=0;entryX=0;entryY=0.5;entryDx=0;entryDy=0;startArrow=none;startFill=0;jumpStyle=gap;" edge="1" parent="-pohOnXNuDEOGiyrZGvC-1" source="-pohOnXNuDEOGiyrZGvC-36" target="-pohOnXNuDEOGiyrZGvC-25">
          <mxGeometry relative="1" as="geometry">
            <mxPoint x="692" y="800" as="sourcePoint" />
            <mxPoint x="479.5" y="545" as="targetPoint" />
            <Array as="points">
              <mxPoint x="680" y="800" />
              <mxPoint x="740" y="800" />
              <mxPoint x="740" y="620" />
              <mxPoint x="410" y="620" />
              <mxPoint x="410" y="530" />
            </Array>
          </mxGeometry>
        </mxCell>
        <mxCell id="GOW6Z6KdIB5SyexLeBnT-0" value="изменили расстояние&lt;div&gt;до цели&lt;/div&gt;" style="text;html=1;align=center;verticalAlign=middle;whiteSpace=wrap;rounded=0;" vertex="1" parent="-pohOnXNuDEOGiyrZGvC-1">
          <mxGeometry x="830" y="210" width="60" height="50" as="geometry" />
        </mxCell>
        <mxCell id="GOW6Z6KdIB5SyexLeBnT-1" value="Борт. журнал" style="rounded=0;whiteSpace=wrap;html=1;" vertex="1" parent="-pohOnXNuDEOGiyrZGvC-1">
          <mxGeometry x="1230" y="710" width="230" height="30" as="geometry" />
        </mxCell>
        <mxCell id="axiQ_8GMJkNkPprRo8FJ-0" value="" style="group" vertex="1" connectable="0" parent="-pohOnXNuDEOGiyrZGvC-1">
          <mxGeometry x="80" y="1120" width="390" height="30" as="geometry" />
        </mxCell>
        <mxCell id="axiQ_8GMJkNkPprRo8FJ-1" value="" style="endArrow=classic;html=1;rounded=0;dashed=1;" edge="1" parent="axiQ_8GMJkNkPprRo8FJ-0">
          <mxGeometry width="50" height="50" relative="1" as="geometry">
            <mxPoint y="14.410000000000082" as="sourcePoint" />
            <mxPoint x="70" y="14.410000000000082" as="targetPoint" />
          </mxGeometry>
        </mxCell>
        <mxCell id="axiQ_8GMJkNkPprRo8FJ-2" value="Обновление по подписке (WebSocket / SignalR)" style="text;html=1;align=left;verticalAlign=middle;whiteSpace=wrap;rounded=0;" vertex="1" parent="axiQ_8GMJkNkPprRo8FJ-0">
          <mxGeometry x="80" width="320" height="30" as="geometry" />
        </mxCell>
      </root>
    </mxGraphModel>
  </diagram>
</mxfile>
